<svg xmlns="http://www.w3.org/2000/svg" width="24" height="24" viewBox="0 0 24 24">
  <g id="Group_15730" data-name="Group 15730" transform="translate(-16 -252)">
    <g id="Group_15700" data-name="Group 15700">
      <g id="Group_15696" data-name="Group 15696" transform="translate(13 -17)">
        <rect id="Rectangle_4508" data-name="Rectangle 4508" width="24" height="24" transform="translate(3 269)" fill="none"/>
      </g>
      <path id="Path_20949" data-name="Path 20949" d="M57.217,7.105l4.115,12.472a.505.505,0,0,1-.321.638L48.059,24.489a.505.505,0,0,1-.638-.321L43.306,11.7a.505.505,0,0,1,.321-.638L56.579,6.784A.505.505,0,0,1,57.217,7.105ZM55.5,14.35l-4.41-2.426-2.1,4.574,1.39.64.908-1.979,1.639,4.968,1.569-.518-1.639-4.967,1.907,1.049Z" transform="translate(-16.811 233.198) rotate(18)" fill="#767676"/>
    </g>
  </g>
</svg>
