<svg xmlns="http://www.w3.org/2000/svg" width="24" height="24" viewBox="0 0 24 24"><g transform="translate(15000 -1074.501)"><rect width="24" height="24" transform="translate(-15000 1074.501)" fill="none"/><g transform="translate(-14995 1079.501)" fill="#767676" stroke-linecap="round" stroke-linejoin="bevel"><path d="M 12.60000038146973 13.29290008544922 L 7.353549957275391 8.046449661254883 L 7 7.692890167236328 L 6.646450042724609 8.046449661254883 L 1.399999976158142 13.29290008544922 L 0.707099974155426 12.60000038146973 L 5.953549861907959 7.353549957275391 L 6.307109832763672 7 L 5.953549861907959 6.646450042724609 L 0.707099974155426 1.399999976158142 L 1.399999976158142 0.707099974155426 L 6.646450042724609 5.953549861907959 L 7 6.307109832763672 L 7.353549957275391 5.953549861907959 L 12.60000038146973 0.707099974155426 L 13.29290008544922 1.399999976158142 L 8.046449661254883 6.646450042724609 L 7.692890167236328 7 L 8.046449661254883 7.353549957275391 L 13.29290008544922 12.60000038146973 L 12.60000038146973 13.29290008544922 Z" stroke="none"/><path d="M 6.307109832763672 6.307109832763672 L 6.307109832763672 7.692890167236328 L 7.692890167236328 7.692890167236328 L 7.692890167236328 6.307109832763672 L 6.307109832763672 6.307109832763672 M 1.399999618530273 0 L 7 5.600000381469727 L 12.60000038146973 0 L 14 1.399999618530273 L 8.399999618530273 7 L 14 12.60000038146973 L 12.60000038146973 14 L 7 8.399999618530273 L 1.399999618530273 14 L 0 12.60000038146973 L 5.600000381469727 7 L 0 1.399999618530273 L 1.399999618530273 0 Z" stroke="none" fill="#707070"/></g></g></svg>