<svg xmlns="http://www.w3.org/2000/svg" width="24" height="24" viewBox="0 0 24 24">
  <g id="Group_15732" data-name="Group 15732" transform="translate(-16 -444)">
    <g id="Group_15070" data-name="Group 15070" transform="translate(-236 535)">
      <g id="Group_15690" data-name="Group 15690">
        <g id="envelope" transform="translate(256 -139.82)">
          <g id="Group_15066" data-name="Group 15066" transform="translate(0 54.82)">
            <path id="Path_20735" data-name="Path 20735" d="M1.536,58.695q.3.214,1.83,1.272T5.705,61.6q.089.063.379.272t.482.339q.192.129.464.29a2.694,2.694,0,0,0,.513.241,1.415,1.415,0,0,0,.446.08h.018a1.416,1.416,0,0,0,.446-.08,2.7,2.7,0,0,0,.513-.241q.272-.161.464-.29t.482-.339q.29-.21.379-.272l4.179-2.9a4.242,4.242,0,0,0,1.089-1.1A2.358,2.358,0,0,0,16,56.249a1.441,1.441,0,0,0-1.429-1.429H1.429a1.275,1.275,0,0,0-1.058.464A1.8,1.8,0,0,0,0,56.445a2.086,2.086,0,0,0,.491,1.219A4.432,4.432,0,0,0,1.536,58.695Z" transform="translate(0 -54.82)" fill="#767676"/>
            <path id="Path_20736" data-name="Path 20736" d="M15.107,185.214q-2.928,1.982-4.446,3.08-.509.375-.826.585a5.1,5.1,0,0,1-.844.428,2.569,2.569,0,0,1-.982.219H7.991a2.57,2.57,0,0,1-.982-.219,5.1,5.1,0,0,1-.844-.428q-.317-.21-.826-.585Q4.134,187.41.9,185.214a4.729,4.729,0,0,1-.9-.777v7.089a1.375,1.375,0,0,0,.42,1.009,1.375,1.375,0,0,0,1.009.42H14.571A1.433,1.433,0,0,0,16,191.526v-7.089A4.924,4.924,0,0,1,15.107,185.214Z" transform="translate(0 -180.383)" fill="#767676"/>
          </g>
        </g>
        <rect id="Rectangle_4231" data-name="Rectangle 4231" width="24" height="24" transform="translate(252 -91)" fill="none"/>
      </g>
    </g>
  </g>
</svg>
