<svg xmlns="http://www.w3.org/2000/svg" width="238.883" height="65.266" viewBox="0 0 238.883 65.266"><g transform="translate(-127.713 -63.712)"><line x2="32.264" transform="translate(201.039 112.445)" fill="none" stroke="#cfcfcf" stroke-miterlimit="10" stroke-width="0.717" opacity="0.17"/><line x2="32.264" transform="translate(334.332 112.445)" fill="none" stroke="#cfcfcf" stroke-miterlimit="10" stroke-width="0.717" opacity="0.17"/><g transform="translate(235.058 108.131)"><path d="M-381.521,290.125a2.834,2.834,0,0,0,2.053.845c.763,0,1.218-.354,1.218-.782a.734.734,0,0,0-.3-.618,4.989,4.989,0,0,0-1.118-.572c-1.091-.464-1.681-.963-1.681-1.872a1.45,1.45,0,0,1,.6-1.226,2.421,2.421,0,0,1,1.527-.464,2.676,2.676,0,0,1,1.536.436v1.154a2.212,2.212,0,0,0-1.509-.554c-.645,0-1.018.264-1.018.654-.037.209.155.391.309.527a2.864,2.864,0,0,0,.464.254l.3.136c.145.064.246.1.291.127a3.838,3.838,0,0,1,1.318.845,1.678,1.678,0,0,1,.408,1.172,1.632,1.632,0,0,1-.6,1.29,2.547,2.547,0,0,1-1.681.509,3.562,3.562,0,0,1-2.117-.645Z" transform="translate(381.521 -285.309)" fill="#e0e0e0"/><path d="M-369.566,291.95v-6.333h4.034v1.026h-2.9v1.508h2.717v1.027h-2.717v1.745h2.962v1.027Z" transform="translate(376.809 -285.38)" fill="#e0e0e0"/><path d="M-353.117,286.1v1.209a2.669,2.669,0,0,0-1.972-.845,2.179,2.179,0,0,0-1.6.645,2.177,2.177,0,0,0-.636,1.608,2.178,2.178,0,0,0,.636,1.609,2.171,2.171,0,0,0,1.6.636,2.668,2.668,0,0,0,1.972-.845v1.209a2.975,2.975,0,0,1-1.972.663,3.358,3.358,0,0,1-2.39-.927,3.14,3.14,0,0,1-.972-2.345,3.139,3.139,0,0,1,.972-2.345,3.327,3.327,0,0,1,2.39-.936A3.008,3.008,0,0,1-353.117,286.1Z" transform="translate(372.428 -285.309)" fill="#e0e0e0"/><path d="M-344.637,285.617h1.135v3.789c0,1.09.537,1.618,1.436,1.618.882,0,1.427-.528,1.427-1.618v-3.789h1.136v3.907a2.4,2.4,0,0,1-.719,1.872,2.632,2.632,0,0,1-1.845.654,2.654,2.654,0,0,1-1.853-.654,2.4,2.4,0,0,1-.718-1.872Z" transform="translate(366.983 -285.38)" fill="#e0e0e0"/><path d="M-330.927,291.95v-6.333h2.463a1.992,1.992,0,0,1,1.454.582,1.887,1.887,0,0,1,.6,1.426,1.911,1.911,0,0,1-1.154,1.8l1.535,2.526h-1.281l-1.354-2.254h-1.127v2.254Zm1.136-3.271h1.208a1,1,0,0,0,1.046-1.036.949.949,0,0,0-.954-1h-1.3Z" transform="translate(361.579 -285.38)" fill="#e0e0e0"/><path d="M-318.328,291.95v-6.333h1.136v6.333Z" transform="translate(356.613 -285.38)" fill="#e0e0e0"/><path d="M-311.067,291.8v-6.57l4.316,4.235v-4h1.136v6.57l-4.316-4.216v3.98Z" transform="translate(353.751 -285.226)" fill="#e0e0e0"/><path d="M-292.034,286v1.145a2.861,2.861,0,0,0-1.917-.682,2.179,2.179,0,0,0-1.6.645,2.178,2.178,0,0,0-.636,1.608,2.179,2.179,0,0,0,.636,1.609,2.172,2.172,0,0,0,1.6.636,2.145,2.145,0,0,0,1.518-.572v-1.118H-294.2v-1.027h2.835V290.8a3.315,3.315,0,0,1-2.591,1.191,3.356,3.356,0,0,1-2.389-.927,3.14,3.14,0,0,1-.972-2.345,3.139,3.139,0,0,1,.972-2.345,3.326,3.326,0,0,1,2.389-.936A3.315,3.315,0,0,1-292.034,286Z" transform="translate(348.33 -285.309)" fill="#e0e0e0"/><path d="M-273.463,291.95v-6.333h1.136v5.307h2.517v1.027Z" transform="translate(338.929 -285.38)" fill="#e0e0e0"/><path d="M-262.738,291.95v-6.333h1.136v6.333Z" transform="translate(334.702 -285.38)" fill="#e0e0e0"/><path d="M-253.273,292.223l-3.044-6.606h1.208l1.836,4.125,1.845-4.125h1.209Z" transform="translate(332.171 -285.38)" fill="#e0e0e0"/><path d="M-241.783,291.95v-6.333h4.034v1.026h-2.9v1.508h2.717v1.027h-2.717v1.745h2.962v1.027Z" transform="translate(326.443 -285.38)" fill="#e0e0e0"/><path d="M-230.608,290.125a2.834,2.834,0,0,0,2.053.845c.763,0,1.218-.354,1.218-.782a.734.734,0,0,0-.3-.618,4.99,4.99,0,0,0-1.118-.572c-1.09-.464-1.681-.963-1.681-1.872a1.449,1.449,0,0,1,.6-1.226,2.421,2.421,0,0,1,1.527-.464,2.674,2.674,0,0,1,1.535.436v1.154a2.211,2.211,0,0,0-1.509-.554c-.645,0-1.018.264-1.018.654-.036.209.155.391.31.527a2.83,2.83,0,0,0,.463.254l.3.136c.146.064.246.1.291.127a3.828,3.828,0,0,1,1.318.845,1.675,1.675,0,0,1,.409,1.172,1.632,1.632,0,0,1-.6,1.29,2.547,2.547,0,0,1-1.681.509,3.561,3.561,0,0,1-2.117-.645Z" transform="translate(322.038 -285.309)" fill="#e0e0e0"/></g><g transform="translate(201.039 89.767)"><path d="M-422.521,259.287h-9l-.214,1.22h5.593a2.8,2.8,0,0,1,2.074.8,2.739,2.739,0,0,1,.8,2.021,2.648,2.648,0,0,1-.016.294c-.01.1-.024.194-.038.294l-.385,2.182a3.974,3.974,0,0,1-1.433,2.416,3.921,3.921,0,0,1-2.588.994h-9.944l.749-4.373h9l.225-1.219h-5.6a2.8,2.8,0,0,1-2.064-.8,2.737,2.737,0,0,1-.8-2c0-.107,0-.21.011-.31s.018-.2.032-.3l.4-2.192a3.932,3.932,0,0,1,1.411-2.406,3.965,3.965,0,0,1,2.6-.994h9.977Z" transform="translate(437.673 -254.915)" fill="#68b130"/><path d="M-406.21,269.51l-.15-1.945H-410.5l-.823,1.945h-4.352l6.2-14.595h6.565l1.07,14.595Zm-.759-10.222-1.947,4.63h2.31Z" transform="translate(429.001 -254.915)" fill="#68b130"/><path d="M-378.926,259.287h-7.785l-.213,1.22h7.784l-.588,3.411h-7.784l-.995,5.592h-4.351l2.545-14.595h12.168Z" transform="translate(420.009 -254.915)" fill="#68b130"/><path d="M-357.914,259.287H-365.7l-.214,1.22h7.784l-.588,3.411H-366.5l-.214,1.219h7.784l-.781,4.373h-12.136l2.545-14.595h12.168Z" transform="translate(411.727 -254.915)" fill="#68b130"/><path d="M-334.529,259.287h-4.5l-1.8,10.222h-4.384l1.807-10.222h-4.5l.769-4.372h13.387Z" transform="translate(402.29 -254.915)" fill="#68b130"/><path d="M-316.522,262.7l-1.187,6.811h-4.384l1.2-6.811-3.721-7.784h5.1l1.615,3.357,2.769-3.357h5.112Z" transform="translate(393.111 -254.915)" fill="#68b130"/><path d="M-273.462,269.51h-5.6l-.439-5.838-2.48,5.838h-5.593l-1.069-14.595h4.373l.609,8.265,3.529-8.265h4.384l.61,8.265,3.517-8.265h4.385Z" transform="translate(378.933 -254.915)" fill="#fff"/><path d="M-249.151,269.51l-.15-1.945h-4.138l-.824,1.945h-4.352l6.2-14.595h6.565l1.07,14.595Zm-.759-10.222-1.947,4.63h2.31Z" transform="translate(367.096 -254.915)" fill="#fff"/><path d="M-220.288,259.287h-9l-1.015,5.849h4.619l.225-1.219h-1.957l.588-3.411h6.33l-.973,5.592a3.972,3.972,0,0,1-1.433,2.416,3.921,3.921,0,0,1-2.588.994h-6.565a2.708,2.708,0,0,1-2.031-.8,2.806,2.806,0,0,1-.792-2.021c0-.1,0-.2.011-.294s.018-.194.033-.294l1.347-7.784a3.932,3.932,0,0,1,1.411-2.406,3.965,3.965,0,0,1,2.6-.994h9.976Z" transform="translate(357.743 -254.915)" fill="#fff"/><path d="M-197.057,257.737a2.609,2.609,0,0,1-.016.288c-.011.093-.023.189-.038.289l-1.358,7.784a3.975,3.975,0,0,1-1.433,2.416,3.921,3.921,0,0,1-2.588.994h-6.565a2.708,2.708,0,0,1-2.031-.8,2.806,2.806,0,0,1-.792-2.021c0-.1,0-.2.011-.294s.018-.194.032-.294l1.347-7.784a3.932,3.932,0,0,1,1.411-2.406,3.964,3.964,0,0,1,2.6-.994h6.566a2.779,2.779,0,0,1,2.053.8A2.738,2.738,0,0,1-197.057,257.737Zm-9.228,1.55-1.015,5.849h4.619l1.026-5.849Z" transform="translate(348.674 -254.915)" fill="#fff"/><path d="M-174.411,257.737a2.466,2.466,0,0,1-.016.288c-.01.093-.023.189-.037.289l-1.967,11.195h-4.384l1.807-10.222h-4.631l-1.8,10.222h-4.352l2.545-14.595h9.976a2.779,2.779,0,0,1,2.053.8A2.74,2.74,0,0,1-174.411,257.737Z" transform="translate(339.967 -254.915)" fill="#fff"/></g><g transform="translate(127.713 63.712)"><path d="M-290.988,145.19v10.945h-4.382V145.695l-.626-.4a29.441,29.441,0,0,0-7.343-3.067,58.086,58.086,0,0,0-16.418-2.361,58.068,58.068,0,0,0-16.414,2.361,29.468,29.468,0,0,0-7.345,3.067l-.626.4v20.292h10.982l.258-1.04a13.506,13.506,0,0,1,13.146-10.3,13.433,13.433,0,0,1,9.969,4.38h-9.969a9.167,9.167,0,0,0-9.156,9.156,9.122,9.122,0,0,0,.267,2.192h-19.88V145.19c0-1.382,1.006-2.623,3.163-3.9a33.151,33.151,0,0,1,6.111-2.682,62.092,62.092,0,0,1,19.494-3.126,62.1,62.1,0,0,1,19.5,3.126,33.12,33.12,0,0,1,6.112,2.683C-291.992,142.567-290.988,143.807-290.988,145.19Z" transform="translate(348.524 -135.48)" fill="#68b130"/><g transform="translate(2.428 30.507)"><path d="M-289.409,185.834v5.782c0,3.849-1.555,7.784-4.618,11.7a47.557,47.557,0,0,1-9.577,8.87,86.117,86.117,0,0,1-13.665,8.006l-.909.405-.891-.4-.014-.005a86.055,86.055,0,0,1-13.666-8.006,47.565,47.565,0,0,1-9.576-8.87,26.588,26.588,0,0,1-2.192-3.244h5.219a41.68,41.68,0,0,0,9.026,8.5,83.6,83.6,0,0,0,11.486,6.907l.608.3.608-.3a83.364,83.364,0,0,0,11.489-6.907,44.831,44.831,0,0,0,8.116-7.338c2.769-3.327,4.175-6.561,4.175-9.61v-1.4h-10.985l-.256,1.041a13.507,13.507,0,0,1-13.145,10.3,13.436,13.436,0,0,1-9.97-4.383h9.97a9.164,9.164,0,0,0,9.153-9.154,9.174,9.174,0,0,0-.266-2.192Z" transform="translate(344.517 -185.834)" fill="#68b130"/></g><path d="M-298.954,180.733a3.124,3.124,0,0,1-2.666,1.495,3.131,3.131,0,0,1-3.132-3.132,3.121,3.121,0,0,1,1.306-2.539,8.109,8.109,0,0,0-2.883-.528,8.131,8.131,0,0,0-8.132,8.131,8.132,8.132,0,0,0,8.132,8.133,8.132,8.132,0,0,0,8.131-8.133A8.1,8.1,0,0,0-298.954,180.733Zm-7.374,5.9a2.474,2.474,0,0,1-2.474-2.474,2.474,2.474,0,0,1,2.474-2.472,2.474,2.474,0,0,1,2.473,2.472A2.475,2.475,0,0,1-306.328,186.634Z" transform="translate(335.097 -151.462)" fill="#1a1818"/></g></g></svg>