<svg xmlns="http://www.w3.org/2000/svg" width="136.906" height="38.179" viewBox="0 0 136.906 38.179"><g transform="translate(-127.213 -63.212)"><line x2="18.356" transform="translate(169.43 91.437)" fill="none" stroke="#6d6f72" stroke-miterlimit="10" stroke-width="0.717" opacity="0.17"/><line x2="18.356" transform="translate(245.264 91.437)" fill="none" stroke="#6d6f72" stroke-miterlimit="10" stroke-width="0.717" opacity="0.17"/><g transform="translate(188.784 88.983)"><path d="M-381.521,288.1a1.612,1.612,0,0,0,1.168.481c.434,0,.693-.2.693-.445a.418.418,0,0,0-.171-.352,2.839,2.839,0,0,0-.636-.326c-.621-.264-.956-.548-.956-1.065a.825.825,0,0,1,.341-.7,1.377,1.377,0,0,1,.869-.264,1.523,1.523,0,0,1,.874.248v.657a1.258,1.258,0,0,0-.858-.315c-.367,0-.579.15-.579.372-.021.119.088.223.176.3a1.628,1.628,0,0,0,.264.145l.171.078c.083.036.14.057.165.072a2.184,2.184,0,0,1,.75.481.955.955,0,0,1,.232.667.928.928,0,0,1-.341.734,1.449,1.449,0,0,1-.956.29,2.026,2.026,0,0,1-1.2-.367Z" transform="translate(381.521 -285.363)" fill="#5a5b5e" stroke="rgba(0,0,0,0)" stroke-miterlimit="10" stroke-width="1"/><path d="M-369.566,289.22v-3.6h2.3v.584h-1.649v.858h1.546v.584h-1.546v.993h1.685v.584Z" transform="translate(373.686 -285.482)" fill="#5a5b5e" stroke="rgba(0,0,0,0)" stroke-miterlimit="10" stroke-width="1"/><path d="M-355.417,285.813v.688a1.518,1.518,0,0,0-1.122-.481,1.239,1.239,0,0,0-.91.367,1.239,1.239,0,0,0-.362.915,1.239,1.239,0,0,0,.362.915,1.235,1.235,0,0,0,.91.362,1.518,1.518,0,0,0,1.122-.481v.688a1.693,1.693,0,0,1-1.122.377,1.91,1.91,0,0,1-1.36-.527,1.787,1.787,0,0,1-.553-1.334,1.786,1.786,0,0,1,.553-1.334,1.893,1.893,0,0,1,1.36-.533A1.711,1.711,0,0,1-355.417,285.813Z" transform="translate(366.403 -285.363)" fill="#5a5b5e" stroke="rgba(0,0,0,0)" stroke-miterlimit="10" stroke-width="1"/><path d="M-344.637,285.617h.646v2.156c0,.62.305.92.817.92s.812-.3.812-.92v-2.156h.646v2.223a1.365,1.365,0,0,1-.409,1.065,1.5,1.5,0,0,1-1.05.372,1.51,1.51,0,0,1-1.054-.372,1.364,1.364,0,0,1-.408-1.065Z" transform="translate(357.35 -285.482)" fill="#5a5b5e" stroke="rgba(0,0,0,0)" stroke-miterlimit="10" stroke-width="1"/><path d="M-330.927,289.22v-3.6h1.4a1.133,1.133,0,0,1,.827.331,1.074,1.074,0,0,1,.341.811,1.087,1.087,0,0,1-.656,1.024l.873,1.437h-.729l-.77-1.282h-.641v1.282Zm.646-1.861h.687a.566.566,0,0,0,.595-.589.54.54,0,0,0-.543-.569h-.739Z" transform="translate(348.366 -285.482)" fill="#5a5b5e" stroke="rgba(0,0,0,0)" stroke-miterlimit="10" stroke-width="1"/><path d="M-318.328,289.22v-3.6h.646v3.6Z" transform="translate(340.109 -285.482)" fill="#5a5b5e" stroke="rgba(0,0,0,0)" stroke-miterlimit="10" stroke-width="1"/><path d="M-311.067,288.964v-3.738l2.456,2.409v-2.275h.646V289.1l-2.456-2.4v2.264Z" transform="translate(335.351 -285.226)" fill="#5a5b5e" stroke="rgba(0,0,0,0)" stroke-miterlimit="10" stroke-width="1"/><path d="M-294.309,285.756v.651a1.628,1.628,0,0,0-1.091-.388,1.24,1.24,0,0,0-.91.367,1.239,1.239,0,0,0-.362.915,1.239,1.239,0,0,0,.362.915,1.236,1.236,0,0,0,.91.362,1.22,1.22,0,0,0,.863-.326v-.636h-1v-.584h1.613v1.453a1.886,1.886,0,0,1-1.474.677,1.909,1.909,0,0,1-1.359-.527,1.787,1.787,0,0,1-.553-1.334,1.786,1.786,0,0,1,.553-1.334,1.892,1.892,0,0,1,1.359-.533A1.886,1.886,0,0,1-294.309,285.756Z" transform="translate(326.338 -285.363)" fill="#5a5b5e" stroke="rgba(0,0,0,0)" stroke-miterlimit="10" stroke-width="1"/><path d="M-273.463,289.22v-3.6h.646v3.019h1.432v.584Z" transform="translate(310.708 -285.482)" fill="#5a5b5e" stroke="rgba(0,0,0,0)" stroke-miterlimit="10" stroke-width="1"/><path d="M-262.738,289.22v-3.6h.646v3.6Z" transform="translate(303.68 -285.482)" fill="#5a5b5e" stroke="rgba(0,0,0,0)" stroke-miterlimit="10" stroke-width="1"/><path d="M-254.585,289.375l-1.732-3.758h.687l1.044,2.347,1.05-2.347h.688Z" transform="translate(299.472 -285.482)" fill="#5a5b5e" stroke="rgba(0,0,0,0)" stroke-miterlimit="10" stroke-width="1"/><path d="M-241.783,289.22v-3.6h2.3v.584h-1.649v.858h1.546v.584h-1.546v.993h1.685v.584Z" transform="translate(289.948 -285.482)" fill="#5a5b5e" stroke="rgba(0,0,0,0)" stroke-miterlimit="10" stroke-width="1"/><path d="M-230.608,288.1a1.612,1.612,0,0,0,1.168.481c.434,0,.693-.2.693-.445a.418.418,0,0,0-.171-.352,2.842,2.842,0,0,0-.636-.326c-.62-.264-.956-.548-.956-1.065a.825.825,0,0,1,.341-.7,1.377,1.377,0,0,1,.869-.264,1.521,1.521,0,0,1,.873.248v.657a1.258,1.258,0,0,0-.858-.315c-.367,0-.579.15-.579.372-.021.119.088.223.176.3a1.607,1.607,0,0,0,.263.145l.171.078c.083.036.14.057.165.072a2.178,2.178,0,0,1,.75.481.953.953,0,0,1,.233.667.929.929,0,0,1-.341.734,1.449,1.449,0,0,1-.957.29,2.026,2.026,0,0,1-1.2-.367Z" transform="translate(282.625 -285.363)" fill="#5a5b5e" stroke="rgba(0,0,0,0)" stroke-miterlimit="10" stroke-width="1"/></g><g transform="translate(169.43 78.536)"><path d="M-429.053,257.4h-5.122l-.122.694h3.182a1.6,1.6,0,0,1,1.18.456,1.559,1.559,0,0,1,.457,1.15,1.5,1.5,0,0,1-.009.168c-.006.055-.014.11-.021.167l-.219,1.241a2.261,2.261,0,0,1-.815,1.375,2.231,2.231,0,0,1-1.472.566h-5.657l.426-2.488h5.122l.128-.694h-3.188a1.59,1.59,0,0,1-1.174-.456,1.557,1.557,0,0,1-.456-1.137c0-.061,0-.12.006-.176s.01-.114.018-.17l.225-1.247a2.237,2.237,0,0,1,.8-1.369,2.256,2.256,0,0,1,1.478-.565h5.676Z" transform="translate(437.673 -254.915)" fill="#68b130" stroke="rgba(0,0,0,0)" stroke-miterlimit="10" stroke-width="1"/><path d="M-410.289,263.218l-.085-1.107h-2.354l-.468,1.107h-2.476l3.529-8.3h3.735l.609,8.3Zm-.432-5.816-1.107,2.634h1.314Z" transform="translate(423.256 -254.915)" fill="#68b130" stroke="rgba(0,0,0,0)" stroke-miterlimit="10" stroke-width="1"/><path d="M-384.932,257.4h-4.429l-.121.694h4.428l-.334,1.94h-4.429l-.566,3.181h-2.476l1.448-8.3h6.923Z" transform="translate(408.305 -254.915)" fill="#68b130" stroke="rgba(0,0,0,0)" stroke-miterlimit="10" stroke-width="1"/><path d="M-363.92,257.4h-4.429l-.122.694h4.429l-.335,1.94H-368.8l-.122.694h4.429l-.444,2.488h-6.9l1.448-8.3h6.923Z" transform="translate(394.536 -254.915)" fill="#68b130" stroke="rgba(0,0,0,0)" stroke-miterlimit="10" stroke-width="1"/><path d="M-340.295,257.4h-2.561l-1.022,5.816h-2.494l1.028-5.816H-347.9l.438-2.488h7.616Z" transform="translate(378.846 -254.915)" fill="#68b130" stroke="rgba(0,0,0,0)" stroke-miterlimit="10" stroke-width="1"/><path d="M-320.011,259.343l-.675,3.875h-2.494l.681-3.875-2.117-4.428h2.9l.919,1.91,1.575-1.91h2.908Z" transform="translate(363.584 -254.915)" fill="#68b130" stroke="rgba(0,0,0,0)" stroke-miterlimit="10" stroke-width="1"/><path d="M-280.007,263.218h-3.188l-.25-3.321-1.411,3.321h-3.182l-.608-8.3h2.488l.347,4.7,2.007-4.7h2.494l.347,4.7,2-4.7h2.495Z" transform="translate(340.012 -254.915)" fill="#1a1818" stroke="rgba(0,0,0,0)" stroke-miterlimit="10" stroke-width="1"/><path d="M-253.23,263.218l-.085-1.107h-2.354l-.469,1.107h-2.476l3.528-8.3h3.735l.609,8.3Zm-.432-5.816-1.107,2.634h1.314Z" transform="translate(320.332 -254.915)" fill="#1a1818" stroke="rgba(0,0,0,0)" stroke-miterlimit="10" stroke-width="1"/><path d="M-226.58,257.4H-231.7l-.578,3.328h2.628l.128-.694h-1.113l.334-1.94h3.6l-.554,3.182a2.259,2.259,0,0,1-.815,1.375,2.23,2.23,0,0,1-1.472.566h-3.735a1.541,1.541,0,0,1-1.156-.456,1.6,1.6,0,0,1-.45-1.15c0-.057,0-.113.006-.167s.01-.11.019-.167l.766-4.429a2.237,2.237,0,0,1,.8-1.369,2.256,2.256,0,0,1,1.478-.565h5.676Z" transform="translate(304.781 -254.915)" fill="#1a1818" stroke="rgba(0,0,0,0)" stroke-miterlimit="10" stroke-width="1"/><path d="M-203.445,256.521a1.483,1.483,0,0,1-.009.164c-.006.053-.013.108-.021.164l-.772,4.429a2.261,2.261,0,0,1-.815,1.375,2.23,2.23,0,0,1-1.472.566h-3.735a1.541,1.541,0,0,1-1.156-.456,1.6,1.6,0,0,1-.45-1.15c0-.057,0-.113.006-.167s.01-.11.018-.167l.767-4.429a2.237,2.237,0,0,1,.8-1.369,2.255,2.255,0,0,1,1.478-.565h3.735a1.581,1.581,0,0,1,1.168.456A1.558,1.558,0,0,1-203.445,256.521Zm-5.25.882-.578,3.328h2.628l.584-3.328Z" transform="translate(289.704 -254.915)" fill="#1a1818" stroke="rgba(0,0,0,0)" stroke-miterlimit="10" stroke-width="1"/><path d="M-181.039,256.521a1.4,1.4,0,0,1-.009.164c-.006.053-.013.108-.021.164l-1.119,6.369h-2.494l1.028-5.816h-2.634l-1.022,5.816h-2.476l1.448-8.3h5.676a1.581,1.581,0,0,1,1.168.456A1.559,1.559,0,0,1-181.039,256.521Z" transform="translate(275.228 -254.915)" fill="#1a1818" stroke="rgba(0,0,0,0)" stroke-miterlimit="10" stroke-width="1"/></g><g transform="translate(127.713 63.712)"><path d="M-315.79,141v6.227h-2.493v-5.94l-.356-.23a16.753,16.753,0,0,0-4.178-1.745,33.046,33.046,0,0,0-9.341-1.343,33.036,33.036,0,0,0-9.338,1.343,16.766,16.766,0,0,0-4.179,1.745l-.356.23v11.545h6.248l.147-.592a7.684,7.684,0,0,1,7.479-5.862,7.642,7.642,0,0,1,5.672,2.492h-5.672a5.215,5.215,0,0,0-5.209,5.209,5.188,5.188,0,0,0,.152,1.247h-11.31V141c0-.786.572-1.492,1.8-2.22a18.857,18.857,0,0,1,3.476-1.526,35.324,35.324,0,0,1,11.09-1.778,35.329,35.329,0,0,1,11.093,1.778,18.841,18.841,0,0,1,3.477,1.527C-316.362,139.512-315.79,140.218-315.79,141Z" transform="translate(348.524 -135.48)" fill="#68b130" stroke="rgba(0,0,0,0)" stroke-miterlimit="10" stroke-width="1"/><g transform="translate(1.381 17.356)"><path d="M-313.164,185.834v3.29a10.858,10.858,0,0,1-2.628,6.654,27.058,27.058,0,0,1-5.449,5.046,49,49,0,0,1-7.774,4.555l-.517.231-.507-.228-.008,0a48.957,48.957,0,0,1-7.775-4.555,27.062,27.062,0,0,1-5.448-5.046,15.127,15.127,0,0,1-1.247-1.845h2.969a23.712,23.712,0,0,0,5.135,4.833,47.557,47.557,0,0,0,6.535,3.929l.346.172.346-.172a47.426,47.426,0,0,0,6.536-3.929,25.505,25.505,0,0,0,4.617-4.175,8.753,8.753,0,0,0,2.375-5.467v-.8h-6.249l-.145.592a7.684,7.684,0,0,1-7.479,5.863,7.644,7.644,0,0,1-5.672-2.494h5.672a5.213,5.213,0,0,0,5.207-5.208,5.219,5.219,0,0,0-.151-1.247Z" transform="translate(344.517 -185.834)" fill="#68b130" stroke="rgba(0,0,0,0)" stroke-miterlimit="10" stroke-width="1"/></g><path d="M-305.638,178.705a1.777,1.777,0,0,1-1.517.85,1.781,1.781,0,0,1-1.782-1.782,1.776,1.776,0,0,1,.743-1.445,4.613,4.613,0,0,0-1.64-.3,4.626,4.626,0,0,0-4.626,4.626,4.626,4.626,0,0,0,4.626,4.627,4.627,4.627,0,0,0,4.626-4.627A4.606,4.606,0,0,0-305.638,178.705Zm-4.2,3.357a1.408,1.408,0,0,1-1.408-1.408,1.407,1.407,0,0,1,1.408-1.407,1.408,1.408,0,0,1,1.407,1.407A1.408,1.408,0,0,1-309.834,182.063Z" transform="translate(326.201 -162.052)" fill="#1a1818" stroke="rgba(0,0,0,0)" stroke-miterlimit="10" stroke-width="1"/></g></g></svg>