<svg xmlns="http://www.w3.org/2000/svg" width="40" height="40" viewBox="0 0 40 40"><g transform="translate(-0.001)"><path d="M246,203.743v-.058c-.012.02-.029.039-.039.058Z" transform="translate(-224.335 -185.778)" fill="#fff" fill-rule="evenodd"/><path d="M9.395,28.061H4.013V11.868H9.395ZM6.7,9.658H6.668a2.806,2.806,0,1,1,.071-5.6,2.807,2.807,0,1,1-.035,5.6Zm22.1,18.4H23.424V19.4c0-2.176-.778-3.661-2.726-3.661a2.944,2.944,0,0,0-2.762,1.969,3.689,3.689,0,0,0-.179,1.312v9.044H12.372s.072-14.674,0-16.193h5.385v2.295a5.347,5.347,0,0,1,4.852-2.675c3.543,0,6.2,2.314,6.2,7.287Z" transform="translate(3.308 3.939)" fill="#fff" fill-rule="evenodd"/><rect width="40" height="40" transform="translate(0.001)" fill="none"/></g></svg>