<svg xmlns="http://www.w3.org/2000/svg" width="40" height="40" viewBox="0 0 40 40"><g transform="translate(-287 -4182)"><g transform="translate(43)"><g transform="translate(243.999 4182)"><path d="M246,203.743v-.058c-.012.02-.029.039-.039.058Z" transform="translate(-224.335 -185.778)" fill="#fff" fill-rule="evenodd"/><rect width="40" height="40" transform="translate(0.001)" fill="none"/></g></g><g transform="translate(296 4191)"><path d="M19.8,0H2.2A2.206,2.206,0,0,0,0,2.2V19.8A2.206,2.206,0,0,0,2.2,22H19.8A2.206,2.206,0,0,0,22,19.8V2.2A2.206,2.206,0,0,0,19.8,0ZM11,6.6A4.4,4.4,0,1,1,6.6,11,4.413,4.413,0,0,1,11,6.6ZM2.75,19.8a.52.52,0,0,1-.55-.55V9.9H4.51A3.742,3.742,0,0,0,4.4,11a6.6,6.6,0,1,0,13.2,0,3.742,3.742,0,0,0-.11-1.1H19.8v9.35a.52.52,0,0,1-.55.55ZM19.8,4.95a.52.52,0,0,1-.55.55h-2.2a.52.52,0,0,1-.55-.55V2.75a.52.52,0,0,1,.55-.55h2.2a.52.52,0,0,1,.55.55Z" fill="#fff"/></g></g></svg>