<svg xmlns="http://www.w3.org/2000/svg" width="24" height="24" viewBox="0 0 24 24">
  <g id="Group_15728" data-name="Group 15728" transform="translate(-16 -348)">
    <path id="Union_5" data-name="Union 5" d="M5639.164,169a1.164,1.164,0,0,1-1.164-1.165V154.166a1.165,1.165,0,0,1,1.164-1.166h6.732a1.166,1.166,0,0,1,1.165,1.166v13.669A1.165,1.165,0,0,1,5645.9,169Zm2.623-1.895a.743.743,0,1,0,.744-.743A.746.746,0,0,0,5641.787,167.105Zm4.4-1.8V154.967h-7.315V165.3H5639V155h7v10.3Zm-5.47-11.314c0,.154.066.281.15.281h3.323c.085,0,.153-.126.153-.281s-.068-.281-.153-.281h-3.323C5640.785,153.708,5640.719,153.833,5640.719,153.989Z" transform="translate(-5615 199)" fill="#767676"/>
    <g id="Group_15685" data-name="Group 15685" transform="translate(0 -3)">
      <g id="Group_15691" data-name="Group 15691" transform="translate(-1 -1)">
        <g id="Group_15682" data-name="Group 15682">
          <rect id="Rectangle_4505" data-name="Rectangle 4505" width="24" height="24" transform="translate(17 352)" fill="none"/>
        </g>
      </g>
    </g>
  </g>
</svg>
