<svg xmlns="http://www.w3.org/2000/svg" width="24" height="24" viewBox="0 0 24 24"><g transform="translate(-1036 -198)"><g transform="translate(-1 40)"><g transform="translate(23 38)"><rect width="24" height="24" transform="translate(1014 120)" fill="none"/></g></g><g transform="translate(1040 202.474)"><g transform="translate(-1.477 -1.474)"><g transform="translate(0 0)"><path d="M16.662,7.035l2.181-2.181a.37.37,0,0,0-.153-.615L13.379,2.6A3.7,3.7,0,0,0,6.412,2.32L.259,4.239a.37.37,0,0,0-.152.615L2.347,7.092.935,9.446a.37.37,0,0,0,.2.542l2.048.683v5.693a.37.37,0,0,0,.24.347l5.93,2.223a.369.369,0,0,0,.237,0h0l6.663-2.221a.37.37,0,0,0,.253-.351V10.518l2.184-.686a.37.37,0,0,0,.151-.615ZM13.547,3.7c0-.094,0-.188-.011-.281l4.349,1.342L16.039,6.612,13.021,5.606A3.712,3.712,0,0,0,13.547,3.7Zm-6.5-.963a2.961,2.961,0,0,1,5.762.963A2.961,2.961,0,0,1,9.846,6.665a2.964,2.964,0,0,1-2.8-3.925ZM1.064,4.763l5.119-1.6a3.732,3.732,0,0,0-.039.537A3.679,3.679,0,0,0,6.555,5.4L2.913,6.612Zm.743,4.668L2.977,7.48,8.921,9.461,7.75,11.412Zm7.3,8.619L3.923,16.107v-5.19C8,12.269,7.8,12.227,7.915,12.227a.37.37,0,0,0,.317-.18l.873-1.455Zm.37-9.184L3.983,7.035l2.991-1a3.7,3.7,0,0,0,5.577.191l2.417.805ZM15.768,16.1,9.846,18.071V10.311l1.312,1.64a.37.37,0,0,0,.4.122l4.21-1.323Zm-4.191-4.805L10.1,9.439l5.942-1.981,1.849,1.849Z" transform="translate(0 -0.002)" fill="#fff"/></g></g><g transform="translate(7.062 0.877)"><path d="M229.031,60.092a.313.313,0,0,0-.442,0l-1.654,1.654-.4-.4a.313.313,0,0,0-.442.442l.625.625a.313.313,0,0,0,.442,0l1.875-1.875A.313.313,0,0,0,229.031,60.092Z" transform="translate(-225.998 -60.001)" fill="#fff"/></g></g></g></svg>