<svg xmlns="http://www.w3.org/2000/svg" width="24" height="24" viewBox="0 0 24 24"><g transform="translate(-1036 -238)"><g transform="translate(-1 80)"><g transform="translate(23 38)"><rect width="24" height="24" transform="translate(1014 120)" fill="none"/></g></g><g transform="translate(1019.039 240.544)"><g transform="translate(21.961 0)"><g transform="translate(0 0)"><path d="M36.537,3.006,31.208.121a1.124,1.124,0,0,0-1.474.442L26.616,6.355H22.825a.854.854,0,0,0-.864.864v9.373a.854.854,0,0,0,.864.864H34.936a.854.854,0,0,0,.864-.864V14.4h.358a.333.333,0,0,0,.337-.337V11.558a.333.333,0,0,0-.337-.337H35.8V8.757a.879.879,0,0,0-.674-.843l1.854-3.433A1.1,1.1,0,0,0,36.537,3.006ZM32.746,1.721,29.418,7.893H28.47l3.56-6.551Zm-2.4-.843A.414.414,0,0,1,30.892.71l.527.295L27.711,7.893H26.553ZM22.614,7.2a.2.2,0,0,1,.19-.169h3.433l-.463.843H22.8a.583.583,0,0,0-.19.021ZM35.1,16.592a.189.189,0,0,1-.19.19H22.8a.189.189,0,0,1-.19-.19V8.757a.189.189,0,0,1,.19-.19H34.894a.189.189,0,0,1,.19.19v2.464H33.8a1.011,1.011,0,0,0-1.011,1.011v1.159A1.011,1.011,0,0,0,33.8,14.4H35.1v2.191Zm.674-4.7H35.8v1.833h-2a.333.333,0,0,1-.337-.337V12.232A.333.333,0,0,1,33.8,11.9Zm.59-7.751L34.346,7.893H30.176l3.16-5.835L36.2,3.617A.368.368,0,0,1,36.369,4.144Z" transform="translate(-21.961 0)" fill="#fff"/></g></g><g transform="translate(33.375 3.639)"><g transform="translate(0)"><path d="M240.419,69.3l-.169-.084a.922.922,0,0,0-1.222.358l-.211.4a.887.887,0,0,0-.063.7.848.848,0,0,0,.442.527l.169.084a.959.959,0,0,0,.421.105.947.947,0,0,0,.8-.463l.211-.4A.944.944,0,0,0,240.419,69.3Zm-.232.906-.211.4a.238.238,0,0,1-.316.084l-.169-.105a.31.31,0,0,1-.105-.126.159.159,0,0,1,.021-.169l.211-.4a.279.279,0,0,1,.211-.126.19.19,0,0,1,.105.021l.169.084A.328.328,0,0,1,240.187,70.2Z" transform="translate(-238.71 -69.108)" fill="#fff"/></g></g></g></g></svg>