<svg xmlns="http://www.w3.org/2000/svg" width="24" height="24" viewBox="0 0 24 24">
  <g id="Group_15729" data-name="Group 15729" transform="translate(-16 -204)">
    <g id="Group_15686" data-name="Group 15686" transform="translate(0 9)">
      <rect id="Rectangle_4506" data-name="Rectangle 4506" width="24" height="24" transform="translate(16 195)" fill="none"/>
      <path id="customer-care" d="M54.616,8.907a6.355,6.355,0,0,0-3.184-.989,3.523,3.523,0,0,0,1.826-1.711,1.819,1.819,0,0,0,.548-.515,2.35,2.35,0,0,0,.167-2,.225.225,0,0,0-.22-.143C53.676,1.546,53.083,0,50.4,0,47.5,0,47.048,1.822,47.048,4.07a4.02,4.02,0,0,0,2.33,3.848,6.355,6.355,0,0,0-3.184.989,4.517,4.517,0,0,0-1.787,3.972c0,1.6,2.915,3.122,6,3.122s6-1.517,6-3.122A4.517,4.517,0,0,0,54.616,8.907Zm-6.135-2.35a3.865,3.865,0,0,1-.847-2.444A5.349,5.349,0,0,0,50.967,2.65a1.521,1.521,0,0,0,.467.73,2.251,2.251,0,0,0,1.739.4c0,.1,0,.194,0,.288a4.053,4.053,0,0,1-.458,1.905A3.884,3.884,0,0,1,51.3,6.2a.424.424,0,0,0-.383-.243h-.27a.424.424,0,1,0,0,.849h.27a.423.423,0,0,0,.331-.159.225.225,0,0,0,.039,0,5.278,5.278,0,0,0,1.046-.095h0a2.4,2.4,0,0,1-3.848,0Z" transform="translate(-22.406 199)" fill="#767676"/>
    </g>
  </g>
</svg>
