<svg xmlns="http://www.w3.org/2000/svg" width="24" height="24" viewBox="0 0 24 24">
  <g id="Group_15697" data-name="Group 15697" transform="translate(-3 -269)">
    <g id="Group_15699" data-name="Group 15699">
      <rect id="Rectangle_4508" data-name="Rectangle 4508" width="24" height="24" transform="translate(3 269)" fill="none"/>
      <g id="Group_15698" data-name="Group 15698" transform="translate(-110.785 161.216)">
        <path id="Path_20933" data-name="Path 20933" d="M117.785,145.131v-.625a.98.98,0,0,0,.027-.136c.024-.436.045-.872.068-1.309q.068-1.316.137-2.633.087-1.628.176-3.256c.039-.722.076-1.444.123-2.165a.6.6,0,0,1,.615-.563c.442,0,.884,0,1.326,0l0,0c0,.312,0,.625,0,.937a.457.457,0,0,0,.311.441.468.468,0,0,0,.62-.473c.007-.3.006-.6.009-.9l0,0h3.629l0,0c0,.312,0,.624,0,.936a.46.46,0,0,0,.3.436.468.468,0,0,0,.634-.467c.008-.3.007-.6.01-.9l0,0c.421,0,.843-.005,1.265,0a.618.618,0,0,1,.608.577c.014.182.015.364.034.545a.219.219,0,0,1-.143.249,4.911,4.911,0,0,0-2.523,5.538,4.857,4.857,0,0,0,3.039,3.452c.082.033.132.063.122.164a1.2,1.2,0,0,1-.487.921,3.7,3.7,0,0,1-.57.272h-8.281c-.033-.012-.065-.027-.1-.037a1.256,1.256,0,0,1-.867-.807C117.828,145.256,117.807,145.193,117.785,145.131Z" transform="translate(0 -18.378)" fill="#767676" fill-rule="evenodd"/>
        <path id="Path_20935" data-name="Path 20935" d="M168.1,148.111c-.051.232-.092.466-.155.694a4,4,0,1,1,.1-1.792c.016.1.04.19.06.285Zm-2.079.761a2.212,2.212,0,0,0-.048-.291.96.96,0,0,0-.7-.725.843.843,0,0,0-.872.283,1.118,1.118,0,0,0,.032,1.5.875.875,0,0,0,1.3-.028A1.125,1.125,0,0,0,166.018,148.872Zm-1.938-2.328c-.016-.1-.023-.207-.048-.307a.971.971,0,0,0-.873-.75.928.928,0,0,0-.9.649,1.47,1.47,0,0,0-.066.52.949.949,0,0,0,1.171.89A1.056,1.056,0,0,0,164.08,146.544Zm-.682,3.138c.175.005.26-.1.32-.248q.441-1.058.884-2.113c.168-.4.339-.8.5-1.208a.31.31,0,0,0-.216-.46c-.15-.03-.28.053-.357.236-.252.6-.5,1.2-.752,1.8-.217.517-.439,1.033-.652,1.552A.3.3,0,0,0,163.4,149.682Z" transform="translate(-34.313 -25.889)" fill="#767676" fill-rule="evenodd"/>
        <path id="Path_20937" data-name="Path 20937" d="M130.78,116.068a11.2,11.2,0,0,1,.063-2.159,2.744,2.744,0,0,1,2.256-2.095.423.423,0,0,0,.084-.03h.656a7.034,7.034,0,0,1,.7.2,2.75,2.75,0,0,1,1.736,2.56c0,.509,0,1.019,0,1.528l0,0h-.942l0,0c0-.5,0-1.009-.009-1.514a1.81,1.81,0,1,0-3.62-.017c0,.51,0,1.02,0,1.53l0,0h-.942Z" transform="translate(-10.524)" fill="#767676" fill-rule="evenodd"/>
        <path id="Path_20945" data-name="Path 20945" d="M185.457,169.253c-.008.07-.01.112-.018.152a.349.349,0,0,1-.311.3.324.324,0,0,1-.3-.287.861.861,0,0,1,.035-.362.27.27,0,0,1,.27-.2.288.288,0,0,1,.263.187A1.1,1.1,0,0,1,185.457,169.253Z" transform="translate(-54.375 -46.293)" fill="#767676" fill-rule="evenodd"/>
        <path id="Path_20946" data-name="Path 20946" d="M175.186,156.863c-.007.069-.008.111-.016.151a.345.345,0,0,1-.313.3.327.327,0,0,1-.3-.291.86.86,0,0,1,.033-.349.272.272,0,0,1,.266-.2.3.3,0,0,1,.28.211A1.036,1.036,0,0,1,175.186,156.863Z" transform="translate(-46.046 -36.244)" fill="#767676" fill-rule="evenodd"/>
      </g>
    </g>
  </g>
</svg>
