<svg xmlns="http://www.w3.org/2000/svg" width="22.289" height="27.847" viewBox="0 0 22.289 27.847"><path d="M71.083,24.072,69.489,6.116a.767.767,0,0,0-.763-.7h-3.28a5.5,5.5,0,0,0-11,0h-3.28a.763.763,0,0,0-.763.7L48.806,24.072c0,.023-.006.046-.006.068a3.968,3.968,0,0,0,4.18,3.707H66.909a3.968,3.968,0,0,0,4.18-3.707A.277.277,0,0,0,71.083,24.072ZM59.945,1.538a3.968,3.968,0,0,1,3.964,3.878H55.981A3.968,3.968,0,0,1,59.945,1.538ZM66.909,26.31H52.98a2.453,2.453,0,0,1-2.642-2.136L51.864,6.959h2.574V9.294a.769.769,0,0,0,1.538,0V6.959h7.933V9.294a.769.769,0,0,0,1.538,0V6.959H68.02l1.532,17.215A2.457,2.457,0,0,1,66.909,26.31Z" transform="translate(-48.8 0)" fill="#68b130"/></svg>