<svg xmlns="http://www.w3.org/2000/svg" width="30" height="30" viewBox="0 0 30 30"><g transform="translate(-993 -41)"><g transform="translate(-199 -19)"><rect width="30" height="30" rx="15" transform="translate(1192 60)" fill="#1a1818" opacity="0.05"/><g transform="translate(13.764 4.274)"><path d="M6.61,7.073h-5.6A.905.905,0,0,1,.005,6.062,5.959,5.959,0,0,1,.609,3,5.558,5.558,0,0,1,3.349.44,5.722,5.722,0,0,1,5.731,0l.192,0c.278.005.56.005.832.006.5,0,1.01,0,1.515.03a5.192,5.192,0,0,1,2.972,1.172,5.589,5.589,0,0,1,1.8,2.613,6.879,6.879,0,0,1,.249,2.407.916.916,0,0,1-.986.844H6.61Z" transform="translate(1186.916 71.377)" fill="#68b130" stroke="rgba(0,0,0,0)" stroke-miterlimit="10" stroke-width="1"/><path d="M3.806,7.62H3.778A3.742,3.742,0,0,1,1.13,6.512,3.767,3.767,0,0,1,0,3.865,3.825,3.825,0,0,1,1.078,1.148,3.756,3.756,0,0,1,3.725,0h.067a3.81,3.81,0,0,1,.042,7.62Z" transform="translate(1189.758 63)" fill="#68b130"/></g></g></g></svg>