<svg xmlns="http://www.w3.org/2000/svg" width="24" height="24" viewBox="0 0 24 24">
  <g id="Group_15727" data-name="Group 15727" transform="translate(-16 -60)">
    <g id="Group_15677" data-name="Group 15677" transform="translate(11)">
      <g id="Group_15688" data-name="Group 15688">
        <rect id="Rectangle_4499" data-name="Rectangle 4499" width="24" height="24" transform="translate(5 60)" fill="none"/>
        <g id="Group_15672" data-name="Group 15672" transform="translate(-1190.68 -3.274)">
          <g id="Group_15084" data-name="Group 15084" transform="translate(1200.68 67.274)">
            <path id="Union_2" data-name="Union 2" d="M6.846,7.325h-5.8A.938.938,0,0,1,.005,6.278,6.172,6.172,0,0,1,.631,3.1,5.756,5.756,0,0,1,3.469.456,5.926,5.926,0,0,1,5.935,0l.2,0c.287.005.58.005.862.006.515,0,1.046,0,1.569.031a5.377,5.377,0,0,1,3.078,1.213,5.788,5.788,0,0,1,1.865,2.706,7.123,7.123,0,0,1,.258,2.493.949.949,0,0,1-1.021.874h-5.9Z" transform="translate(0 8.675)" fill="#68b130" stroke="rgba(0,0,0,0)" stroke-miterlimit="10" stroke-width="1"/>
            <path id="Union_3" data-name="Union 3" d="M3.942,7.891H3.913A3.875,3.875,0,0,1,1.17,6.744,3.9,3.9,0,0,1,0,4,3.961,3.961,0,0,1,1.116,1.189,3.89,3.89,0,0,1,3.858,0h.07a3.946,3.946,0,0,1,.043,7.891Z" transform="translate(2.942)" fill="#68b130"/>
          </g>
        </g>
      </g>
    </g>
  </g>
</svg>
